<svg id="Layer_1" data-name="Layer 1" xmlns="http://www.w3.org/2000/svg" viewBox="0 0 512 512"><defs><style>.cls-1{fill:#dd5746;}.cls-2{fill:#fbb03b;}</style></defs><path class="cls-1" d="M466,156.04V334.4375H356.1066V45h7.1663C420,45,466,94.723,466,156.04Z"/><path class="cls-1" d="M354.96,466H176.5625V356.1066H466v7.1663C466,420,416.277,466,354.96,466Z"/><path class="cls-1" d="M154.8934,176.5625V466h-7.1663C91,466,45,416.2694,45,354.9613V176.5625Z"/><path class="cls-1" d="M334.4375,45V154.8934H45v-7.1663C45,91,94.7306,45,156.0387,45Z"/><path class="cls-2" d="M183.7443,45,81.7136,154.8934H45v-7.1663C45,91,94.7306,45,156.0387,45Z"/><path class="cls-2" d="M327.2557,466,429.2864,356.1066H466v7.1663C466,420,416.2694,466,354.9613,466Z"/><circle class="cls-2" cx="251.6305" cy="254.7261" r="45.6599"/><path d="M237.208,280.9805v-8.3584h8.915V238.1455h-8.915v-8.3584h27.999v8.3584h-8.915v34.4766h8.915v8.3584Z"/></svg>